<svg id="Layer_1" data-name="Layer 1" xmlns="http://www.w3.org/2000/svg" viewBox="0 0 360.15 360.35"><path d="M-426.27,522.54v-4.89q0-50.34,0-100.68c0-6.86-1.48-13.12-6.21-18.29A23.08,23.08,0,0,0-450,390.84c-16.1,0-32.2-.18-48.3,0-14.18.19-24,10.53-24,25.15-.07,33.94,0,67.87,0,101.8v5h-4.24q-44.74,0-89.48,0c-22.83,0-38.23-15.49-38.24-38.33q0-93.94,0-187.89c0-14.11,5.73-24.91,17.49-32.73q71-47.22,142-94.53c13.39-8.89,27.35-9.13,40.74-.28q72.06,47.69,143.81,95.81c10.74,7.18,16.05,17.62,16.07,30.46q.12,95.25,0,190.51c0,20.73-15.29,36.64-35.87,36.87-31.31.35-62.64.11-94,.1A20.07,20.07,0,0,1-426.27,522.54Z" transform="translate(654.33 -162.54)"/></svg>